<?xml version="1.0" encoding="UTF-8"?>
<svg version="1.1" xmlns="http://www.w3.org/2000/svg" width="4678" height="1136">
<path d="M0 0 C4.22062421 0.54162974 6.99713025 3.09379901 10.1875 5.6875 C10.79480957 6.17299316 11.40211914 6.65848633 12.02783203 7.15869141 C18.30155365 12.19386509 24.49979283 17.3230929 30.69921875 22.44921875 C39.7751184 29.95062304 48.90012185 37.38666988 58.1875 44.625 C63.36364973 48.65992254 68.40257717 52.83021066 73.39404297 57.09082031 C77.27983432 60.40457959 81.22983142 63.61960376 85.23046875 66.79296875 C88.71368581 69.56873411 92.16978197 72.37700787 95.625 75.1875 C96.30651123 75.74147461 96.98802246 76.29544922 97.69018555 76.86621094 C101.16045405 79.68780462 104.62841002 82.51219949 108.09375 85.33984375 C114.97912481 90.95307468 121.90086057 96.50708872 128.90917969 101.96606445 C133.54187201 105.5945643 138.02936623 109.37698988 142.49951172 113.20288086 C146.5458103 116.65339381 150.69682543 119.87808904 155 123 C152.96877826 126.55148397 150.74512927 129.67328852 148.125 132.8125 C146.93003906 134.25496094 146.93003906 134.25496094 145.7109375 135.7265625 C145.27620117 136.25024414 144.84146484 136.77392578 144.39355469 137.31347656 C141.82537024 140.42157365 139.28979489 143.55619925 136.75 146.6875 C135.63026592 148.06645301 134.51047356 149.4453587 133.390625 150.82421875 C132.82923828 151.51563965 132.26785156 152.20706055 131.68945312 152.91943359 C129.49878474 155.61724804 127.30733948 158.31443062 125.11572266 161.01147461 C124.03710053 162.33897192 122.95865046 163.66660904 121.88037109 164.99438477 C119.15027203 168.35586545 116.41752728 171.71513245 113.6796875 175.0703125 C108.51982364 181.39886347 103.39349147 187.7460689 98.375 194.1875 C94.34017962 199.36372575 90.16978529 204.40258191 85.90917969 209.39404297 C82.59777918 213.27706836 79.38431482 217.22354858 76.21484375 221.22265625 C73.3990022 224.75363216 70.54197784 228.25024119 67.6875 231.75 C63.52735221 236.8536741 59.42032482 241.99242052 55.375 247.1875 C51.34032895 252.36383787 47.16977965 257.40258852 42.90917969 262.39404297 C39.59542041 266.27983432 36.38039624 270.22983142 33.20703125 274.23046875 C30.43126589 277.71368581 27.62299213 281.16978197 24.8125 284.625 C24.25852539 285.30651123 23.70455078 285.98802246 23.13378906 286.69018555 C20.31219538 290.16045405 17.48780051 293.62841002 14.66015625 297.09375 C9.50707195 303.41469373 4.38723587 309.7540982 -0.625 316.1875 C-4.65982038 321.36372575 -8.83021471 326.40258191 -13.09082031 331.39404297 C-16.40457959 335.27983432 -19.61960376 339.22983142 -22.79296875 343.23046875 C-25.56873411 346.71368581 -28.37700787 350.16978197 -31.1875 353.625 C-31.74147461 354.30651123 -32.29544922 354.98802246 -32.86621094 355.69018555 C-35.68780462 359.16045405 -38.51219949 362.62841002 -41.33984375 366.09375 C-46.98972903 373.02370702 -52.58892135 379.98619834 -58.09350586 387.03222656 C-62.31254232 392.42395645 -66.64367369 397.71855459 -71 403 C-67.17604089 410.86407742 -63.0880723 418.48215663 -58.625 426 C-57.38686999 428.1034897 -56.14993994 430.20768605 -54.9140625 432.3125 C-54.2737207 433.40304687 -53.63337891 434.49359375 -52.97363281 435.6171875 C-49.60707987 441.38746924 -46.3051767 447.19444779 -43 453 C-37.46113995 462.72180742 -31.86624288 472.40896202 -26.21655273 482.06689453 C-20.06233258 492.59084625 -13.97630004 503.15380137 -7.89111328 513.71777344 C-4.76319852 519.14659942 -1.63141552 524.57319281 1.5 530 C2.75001879 532.16665583 4.00001878 534.3333225 5.25 536.5 C5.86875 537.5725 6.4875 538.645 7.125 539.75 C19 560.33333333 30.875 580.91666667 42.75 601.5 C43.36979736 602.57419189 43.98959473 603.64838379 44.62817383 604.75512695 C45.86802723 606.90445415 47.1074535 609.05402781 48.34643555 611.20385742 C51.27163763 616.27834489 54.20111723 621.35021617 57.14590454 626.4133606 C58.5354863 628.80315668 59.92262172 631.19436836 61.30957031 633.58569336 C62.28863253 635.27140589 63.27122606 636.95506587 64.25390625 638.63867188 C64.846875 639.66154297 65.43984375 640.68441406 66.05078125 641.73828125 C66.57325439 642.63587158 67.09572754 643.53346191 67.6340332 644.45825195 C68.9581544 646.92213502 70.01706574 649.38364731 71 652 C70.2879541 652.40613525 69.5759082 652.81227051 68.84228516 653.23071289 C52.60954545 662.49191534 36.39940195 671.7907986 20.21777344 681.14111328 C14.81329351 684.26324607 9.40649893 687.38136526 4 690.5 C2.92878906 691.11810547 1.85757812 691.73621094 0.75390625 692.37304688 C-4.68646075 695.51222374 -10.12762955 698.64999629 -15.5703125 701.78515625 C-26.02206192 707.80747325 -36.46300293 713.84668065 -46.875 719.9375 C-56.94828653 725.829168 -67.06965614 731.63355931 -77.21044922 737.40795898 C-84.50037044 741.56074961 -91.76164712 745.75798474 -99 750 C-102.02837983 747.18356986 -104.1074732 744.4279552 -106.14453125 740.8359375 C-106.73105469 739.80984375 -107.31757813 738.78375 -107.921875 737.7265625 C-108.54578125 736.62054687 -109.1696875 735.51453125 -109.8125 734.375 C-110.47718268 733.2079447 -111.14255999 732.04128477 -111.80859375 730.875 C-113.19100803 728.4530191 -114.57042515 726.02936846 -115.94775391 723.60449219 C-119.10394139 718.05360299 -122.30425009 712.52817099 -125.5 707 C-126.75020698 704.83345276 -128.00020633 702.66678569 -129.25 700.5 C-129.86875 699.4275 -130.4875 698.355 -131.125 697.25 C-241.75 505.5 -241.75 505.5 -243.62524414 502.24951172 C-244.87435518 500.08442929 -246.12354129 497.91939018 -247.37280273 495.75439453 C-250.51202309 490.31384294 -253.64990563 484.87252784 -256.78515625 479.4296875 C-262.80747282 468.97793881 -268.84658414 458.53694017 -274.9375 448.125 C-278.64761425 441.78285237 -282.33640025 435.42946399 -285.9765625 429.046875 C-286.31292221 428.45724472 -286.64928192 427.86761444 -286.99583435 427.26011658 C-288.6910809 424.28642103 -290.38258298 421.31065845 -292.06958008 418.33227539 C-295.28378052 412.669793 -298.55253457 407.05297767 -301.97265625 401.51171875 C-302.58939209 400.50447754 -303.20612793 399.49723633 -303.84155273 398.45947266 C-305.00122344 396.57574198 -306.17579559 394.70107638 -307.36743164 392.83740234 C-307.87781982 392.00547363 -308.38820801 391.17354492 -308.9140625 390.31640625 C-309.3673291 389.59912354 -309.8205957 388.88184082 -310.28759766 388.14282227 C-311 386 -311 386 -310.27539062 383.41650391 C-308.56351756 380.17298944 -306.28880226 377.54300681 -303.875 374.8125 C-302.86875911 373.64932995 -301.86355677 372.48526069 -300.859375 371.3203125 C-300.36759766 370.7521582 -299.87582031 370.18400391 -299.36914062 369.59863281 C-296.90255633 366.71860536 -294.56312387 363.73983946 -292.20703125 360.76953125 C-289.43126687 357.28631542 -286.62308435 353.83014172 -283.8125 350.375 C-283.2570752 349.69203857 -282.70165039 349.00907715 -282.12939453 348.30541992 C-280.98822213 346.90242221 -279.8469451 345.49950959 -278.70556641 344.09667969 C-275.42848479 340.06811156 -272.15432556 336.03716738 -268.88061523 332.00585938 C-266.15039757 328.64432765 -263.41759962 325.2849562 -260.6796875 321.9296875 C-255.51982364 315.60113653 -250.39349147 309.2539311 -245.375 302.8125 C-241.34017962 297.63627425 -237.16978529 292.59741809 -232.90917969 287.60595703 C-229.59542041 283.72016568 -226.38039624 279.77016858 -223.20703125 275.76953125 C-220.43126589 272.28631419 -217.62299213 268.83021803 -214.8125 265.375 C-214.25852539 264.69348877 -213.70455078 264.01197754 -213.13378906 263.30981445 C-210.31219538 259.83954595 -207.48780051 256.37158998 -204.66015625 252.90625 C-199.50707195 246.58530627 -194.38723587 240.2459018 -189.375 233.8125 C-185.34017962 228.63627425 -181.16978529 223.59741809 -176.90917969 218.60595703 C-173.59542041 214.72016568 -170.38039624 210.77016858 -167.20703125 206.76953125 C-164.43126589 203.28631419 -161.62299213 199.83021803 -158.8125 196.375 C-158.25852539 195.69348877 -157.70455078 195.01197754 -157.13378906 194.30981445 C-154.31219538 190.83954595 -151.48780051 187.37158998 -148.66015625 183.90625 C-143.50707195 177.58530627 -138.38723587 171.2459018 -133.375 164.8125 C-129.34017962 159.63627425 -125.16978529 154.59741809 -120.90917969 149.60595703 C-117.59777918 145.72293164 -114.38431482 141.77645142 -111.21484375 137.77734375 C-108.3990022 134.24636784 -105.54197784 130.74975881 -102.6875 127.25 C-98.52735221 122.1463259 -94.42032482 117.00757948 -90.375 111.8125 C-86.34032895 106.63616213 -82.16977965 101.59741148 -77.90917969 96.60595703 C-74.59542041 92.72016568 -71.38039624 88.77016858 -68.20703125 84.76953125 C-65.43126589 81.28631419 -62.62299213 77.83021803 -59.8125 74.375 C-59.25852539 73.69348877 -58.70455078 73.01197754 -58.13378906 72.30981445 C-55.31219538 68.83954595 -52.48780051 65.37158998 -49.66015625 61.90625 C-44.50707195 55.58530627 -39.38723587 49.2459018 -34.375 42.8125 C-30.3420653 37.63869338 -26.17266 32.6031014 -21.91577148 27.61254883 C-14.28682873 18.66171213 -7.14304316 9.33865069 0 0 Z " fill="#C88737" transform="translate(311,0)"/>
<path d="M0 0 C3.3914178 0.67013395 6.0112775 1.97546055 9.015625 3.66796875 C10.00667236 4.22403809 10.99771973 4.78010742 12.01879883 5.35302734 C13.08509521 5.95840332 14.1513916 6.5637793 15.25 7.1875 C16.36463623 7.8160791 17.47927246 8.4446582 18.62768555 9.09228516 C27.04978 13.85655014 35.41779247 18.71143144 43.76464844 23.60620117 C51.47828379 28.12671237 59.23156242 32.57470557 67 37 C76.72142984 42.53953103 86.40895304 48.13375187 96.06689453 53.78344727 C103.32211767 58.02617297 110.59356897 62.23991796 117.875 66.4375 C119.48362915 67.36502075 119.48362915 67.36502075 121.12475586 68.3112793 C126.71292907 71.53218506 132.303119 74.74956462 137.89453125 77.96484375 C149.32524509 84.54231182 160.73548032 91.14091129 172 98 C168.15618294 105.90535539 164.04462732 113.56508071 159.5625 121.125 C158.32231764 123.23402286 157.08275562 125.34341061 155.84375 127.453125 C155.20953125 128.53142578 154.5753125 129.60972656 153.921875 130.72070312 C150.77515892 136.08994733 147.66841381 141.48208191 144.5625 146.875 C143.62966187 148.49365967 143.62966187 148.49365967 142.67797852 150.14501953 C141.41550269 152.33582951 140.15321444 154.5267476 138.89111328 156.71777344 C135.76319852 162.14659942 132.63141552 167.57319281 129.5 173 C128.24998121 175.16665583 126.99998122 177.3333225 125.75 179.5 C108.25 209.83333333 90.75 240.16666667 73.25 270.5 C72.63116943 271.57266113 72.01233887 272.64532227 71.37475586 273.75048828 C70.12564482 275.91557071 68.87645871 278.08060982 67.62719727 280.24560547 C64.48797691 285.68615706 61.35009437 291.12747216 58.21484375 296.5703125 C52.19252671 307.02206199 46.15330663 317.46299548 40.0625 327.875 C34.98724877 336.55262241 29.97741233 345.26605568 25 354 C19.4599827 363.72115617 13.86625191 373.40894658 8.21655273 383.06689453 C2.068295 393.5806503 -4.01197929 404.13329606 -10.09130859 414.68701172 C-12.02485445 418.04314081 -13.95946169 421.39865548 -15.89453125 424.75390625 C-16.53430908 425.86338623 -17.17408691 426.97286621 -17.83325195 428.1159668 C-19.0975659 430.30689677 -20.36300368 432.49717865 -21.62963867 434.68676758 C-24.53871183 439.7174985 -27.43243603 444.75517671 -30.28125 449.8203125 C-30.7855957 450.71049072 -31.28994141 451.60066895 -31.80957031 452.51782227 C-32.74350985 454.16772935 -33.67039866 455.82165534 -34.58886719 457.48022461 C-37.66289554 462.88763185 -37.66289554 462.88763185 -41 464 C-43.56745856 463.73019559 -46.06383146 463.38508469 -48.60722351 462.96456909 C-49.39318793 462.84048457 -50.17915234 462.71640005 -50.98893386 462.5885554 C-53.64570162 462.16729568 -56.30068696 461.73569184 -58.95581055 461.30419922 C-60.8701302 460.9984802 -62.78455167 460.6933982 -64.69906616 460.38890171 C-69.97790419 459.54744575 -75.25525972 458.69699151 -80.53243232 457.84516215 C-86.21566751 456.92942504 -91.90024224 456.02207768 -97.58467102 455.11378479 C-107.4407308 453.53778445 -117.2959544 451.95664175 -127.15063477 450.37203979 C-142.07632712 447.97209761 -157.0034134 445.58091182 -171.93083295 443.19173913 C-177.91893503 442.23329224 -183.90699393 441.27457561 -189.89505005 440.31584167 C-190.56020587 440.20934802 -191.22536169 440.10285437 -191.91067375 439.99313364 C-202.16746591 438.35094677 -212.42399564 436.70712735 -222.6803894 435.06245422 C-260.84315006 428.94307028 -299.00936557 422.84564058 -337.17825988 416.76463485 C-340.54424292 416.22835856 -343.91021602 415.69201981 -347.2761898 415.15568542 C-360.40613907 413.06357967 -373.53613757 410.971783 -386.66616821 408.88018799 C-430.2415139 401.93866671 -430.2415139 401.93866671 -449.9249602 398.79988974 C-455.46997757 397.91568568 -461.0150407 397.03177132 -466.56023598 396.14868355 C-509.20871591 389.35655662 -509.20871591 389.35655662 -529 386 C-527.6561366 374.64733373 -526.0228131 363.36286553 -524.21850586 352.07495117 C-523.9437557 350.34352536 -523.66923141 348.61206369 -523.39491272 346.88056946 C-522.65778124 342.23230941 -521.91734947 337.58458098 -521.1761291 332.93697143 C-520.3982377 328.05665213 -519.62298453 323.1759136 -518.8473053 318.29524231 C-517.54716014 310.11734155 -516.24480505 301.93979502 -514.94116211 293.76245117 C-513.43381566 284.30713031 -511.93024885 274.85121405 -510.42860883 265.39498538 C-508.9807591 256.27816981 -507.53004809 247.16181169 -506.07809639 238.04564857 C-505.46111145 234.17146382 -504.84517445 230.2971146 -504.23008537 226.4226284 C-503.50761577 221.87247708 -502.78266156 217.32272855 -502.05576134 212.773283 C-501.78921793 211.10244934 -501.52354695 209.43147624 -501.25880051 207.7603569 C-500.89814675 205.48476796 -500.53437447 203.20969926 -500.16978455 200.93473816 C-499.86534125 199.02323109 -499.86534125 199.02323109 -499.55474758 197.07310772 C-499 194 -499 194 -498 191 C-486.24423996 191.60400895 -474.6883989 193.6877732 -463.08496094 195.56323242 C-460.76301159 195.93513543 -458.44099846 196.30664037 -456.118927 196.67778015 C-449.81163051 197.68702521 -443.50523432 198.70179762 -437.19897747 199.71751571 C-431.18392317 200.68587086 -425.16803962 201.6490534 -419.15223292 202.61272088 C-407.13999197 204.53708437 -395.12838583 206.46538053 -383.1171875 208.39624023 C-367.47752421 210.91037947 -351.83722318 213.42052834 -336.19665432 215.92902732 C-332.01992916 216.59890865 -327.84321889 217.26888284 -323.66651154 217.9388752 C-310.62228535 220.031305 -297.5780229 222.12350874 -284.53374988 224.21564658 C-282.50960485 224.54029568 -280.48546064 224.8649499 -278.46131659 225.18960512 C-271.85510729 226.24917687 -265.24888343 227.30865765 -258.64263153 228.36796379 C-246.37575898 230.33504924 -234.10909059 232.30338618 -221.84301758 234.27545166 C-212.21784285 235.82292469 -202.59219255 237.36739149 -192.96583676 238.90750128 C-188.18648575 239.67224521 -183.40739421 240.43852337 -178.62895966 241.20897484 C-174.30048609 241.90686379 -169.97135619 242.60051363 -165.64164257 243.29066634 C-164.08888235 243.53895485 -162.53637456 243.78882832 -160.98415089 244.04044938 C-158.89018338 244.37966251 -156.79537719 244.71311673 -154.70025635 245.04512024 C-152.9623049 245.32402084 -152.9623049 245.32402084 -151.18924332 245.60855579 C-148.08906196 245.98906863 -145.11971161 246.07212997 -142 246 C-141.62415771 245.34854004 -141.24831543 244.69708008 -140.86108398 244.02587891 C-104.99072266 181.85058594 -69.12036133 119.67529297 -33.25 57.5 C-32.63060547 56.42637207 -32.01121094 55.35274414 -31.37304688 54.24658203 C-30.1295949 52.09128689 -28.88610564 49.93601327 -27.64257812 47.78076172 C-24.75537125 42.77662326 -21.8684957 37.7722948 -18.98303223 32.76715088 C-17.97380896 31.01658759 -16.96446164 29.26609589 -15.95507812 27.515625 C-14.6983234 25.33607835 -13.44179414 23.15640168 -12.18554688 20.9765625 C-8.14583558 13.97138717 -4.0806316 6.98141493 0 0 Z " fill="#C88737" transform="translate(743,672)"/>
<path d="M0 0 C139.59 0 279.18 0 423 0 C432.17003542 22.92508856 432.17003542 22.92508856 435.234375 31.0625 C435.76795624 32.4714856 435.76795624 32.4714856 436.31231689 33.90893555 C437.06848199 35.90580984 437.82390759 37.90296431 438.57861328 39.90039062 C440.64673406 45.37285027 442.72158305 50.84275653 444.796875 56.3125 C445.22577026 57.44300781 445.65466553 58.57351562 446.09655762 59.73828125 C450.69211942 71.84051535 455.3441796 83.92084976 460 96 C466.64913988 113.2539207 473.25429127 130.52380977 479.8125 147.8125 C485.59548778 163.05702585 491.40374822 178.29105437 497.26812744 193.50445557 C502.93999472 208.21993471 508.56728298 222.95222471 514.1875 237.6875 C521.1368925 255.90737757 528.11506505 274.11583277 535.125 292.3125 C542.13839172 310.51866848 549.09656229 328.74507962 556.01672363 346.98687744 C561.39213464 361.15559562 566.79714671 375.31222273 572.24798584 389.4520874 C578.34431457 405.26790243 584.39373963 421.10154346 590.4375 436.9375 C590.79681232 437.87894678 590.79681232 437.87894678 591.16338348 438.83941269 C594.10971405 446.55930646 597.05527484 454.27949371 600 462 C597.35407771 464.11746795 594.95135268 465.58029084 591.78125 466.76733398 C590.94625977 467.08375351 590.11126953 467.40017303 589.25097656 467.72618103 C588.3431543 468.06275223 587.43533203 468.39932343 586.5 468.74609375 C585.53803711 469.10888931 584.57607422 469.47168488 583.58496094 469.84547424 C581.4932451 470.63360081 579.4004231 471.41879632 577.30664062 472.20141602 C572.78996972 473.8898319 568.27866811 475.59237439 563.76708984 477.29434204 C561.40308819 478.18611432 559.03882604 479.07719634 556.67431641 479.96762085 C545.50054444 484.17821635 534.35533946 488.46141969 523.21502686 492.75961304 C502.52238105 500.74302632 481.80413782 508.65711004 461.06420898 516.5168457 C452.43245312 519.78893156 443.80187123 523.06215723 435.19921875 526.41015625 C434.24628937 526.78034882 434.24628937 526.78034882 433.27410889 527.15802002 C430.50019546 528.23619308 427.72848614 529.31941261 424.96044922 530.41259766 C424.05697754 530.76499512 423.15350586 531.11739258 422.22265625 531.48046875 C421.08969116 531.92749146 421.08969116 531.92749146 419.93383789 532.38354492 C418 533 418 533 415 533 C409.35623482 519.0492078 403.91446773 505.02857451 398.56634521 490.96200562 C396.26402544 484.90687365 393.95613404 478.85386567 391.6484375 472.80078125 C391.41268635 472.18224588 391.1769352 471.56371052 390.93404007 470.92643166 C385.94407059 457.83531893 380.91241149 444.76041235 375.875 431.6875 C368.86117736 413.48149892 361.90343674 395.25491785 354.98327637 377.01312256 C349.60123047 362.82691589 344.1891944 348.65295539 338.73187256 334.49554443 C332.61191466 318.61750846 326.54436707 302.7196517 320.4805603 286.82009888 C315.45443864 273.64308058 310.41776074 260.47026285 305.3515625 247.30859375 C304.89398056 246.11982132 304.43639862 244.93104889 303.96495056 243.70625305 C301.77709682 238.02390153 299.58743967 232.34225075 297.39575195 226.66137695 C296.60627878 224.61279442 295.81680919 222.56421051 295.02734375 220.515625 C294.67721222 219.60965073 294.32708069 218.70367645 293.96633911 217.77024841 C292.1982077 213.18011385 290.45663509 208.58051326 288.74829102 203.96777344 C288.4133815 203.06492615 288.07847198 202.16207886 287.7334137 201.23187256 C287 199 287 199 287 197 C286.3952124 197.00037972 285.7904248 197.00075944 285.1673103 197.00115067 C249.36052032 197.02350564 213.55373153 197.04067485 177.74693603 197.05106533 C173.45214028 197.05231611 169.15734455 197.05361042 164.86254883 197.05493164 C163.57996856 197.05532511 163.57996856 197.05532511 162.27147757 197.05572652 C148.40791822 197.06008348 134.544363 197.06797117 120.68080611 197.0771528 C106.46637555 197.08648862 92.25194717 197.09205546 78.03751367 197.09408849 C69.25921083 197.09546387 60.48091964 197.09981524 51.70262038 197.10791647 C45.69139264 197.11318305 39.68017097 197.1148045 33.66894109 197.11350138 C30.19547715 197.11285786 26.72203365 197.11387705 23.2485733 197.11920547 C19.49167236 197.12413501 15.7348225 197.12300103 11.97792053 197.12025452 C10.86802216 197.12316736 9.75812379 197.1260802 8.61459213 197.12908131 C7.11722886 197.12609474 7.11722886 197.12609474 5.58961582 197.12304783 C4.72119543 197.12342755 3.85277503 197.12380727 2.95803887 197.1241985 C1 197 1 197 0 196 C0 131.32 0 66.64 0 0 Z " fill="#C88737" transform="translate(580,151)"/>
<path d="M0 0 C0.63776367 0.35320312 1.27552734 0.70640625 1.93261719 1.0703125 C16.10535521 9.02593324 28.25229871 18.82663078 40 30 C40.94939453 30.87011719 40.94939453 30.87011719 41.91796875 31.7578125 C56.10881552 45.17338735 66.95607712 62.85769123 76 80 C76.36061523 80.67111816 76.72123047 81.34223633 77.09277344 82.03369141 C101.17119247 127.41058621 107 180.57344796 107 231 C9.32 231 -88.36 231 -189 231 C-184.51307208 243.56573355 -184.51307208 243.56573355 -178.6875 255.3125 C-178.30924072 255.96927734 -177.93098145 256.62605469 -177.54125977 257.30273438 C-173.94961355 263.37462708 -169.74769286 268.78181506 -165 274 C-164.37738281 274.70382812 -163.75476562 275.40765625 -163.11328125 276.1328125 C-147.15413413 293.19605156 -122.93652148 303.50844561 -99.7578125 304.3359375 C-85.39613143 304.53292353 -71.90133933 303.70432976 -58 300 C-57.15308594 299.7745752 -56.30617187 299.54915039 -55.43359375 299.31689453 C-35.12970692 293.67820198 -14.07189656 284.07189656 1 269 C5.260664 269.13923739 7.49707285 272.16742852 10.3125 275.0625 C11.21613281 275.98160156 12.11976562 276.90070313 13.05078125 277.84765625 C15.14908396 280.0511158 17.1452698 282.3213408 19.1237793 284.63256836 C23.20455867 289.3063844 27.56010172 293.66862055 31.96875 298.03125 C32.8078894 298.86660278 33.64702881 299.70195557 34.51159668 300.56262207 C37.171969 303.21087086 39.83556013 305.85584406 42.5 308.5 C46.01337273 311.98662601 49.52331971 315.47664926 53.03125 318.96875 C54.22373352 320.14878601 54.22373352 320.14878601 55.44030762 321.35266113 C59.64741485 325.541427 63.68588418 329.8090325 67.54640198 334.3203125 C69.41535142 336.47995428 71.40072717 338.49896003 73.4375 340.5 C74.11683594 341.1703125 74.79617188 341.840625 75.49609375 342.53125 C75.99238281 343.0159375 76.48867188 343.500625 77 344 C68.36703115 365.38396306 29.4881803 380.53325118 10 389 C-49.3905505 413.81176022 -119.47403241 417.32398686 -179.57958984 392.95410156 C-198.48552096 385.05423256 -216.24042177 375.15173744 -232 362 C-232.86165771 361.2884375 -232.86165771 361.2884375 -233.74072266 360.5625 C-245.29451817 350.98784129 -255.77927706 340.88825649 -265 329 C-265.41862305 328.46842285 -265.83724609 327.9368457 -266.26855469 327.38916016 C-290.19287184 296.84087528 -303.78220481 260.24777285 -309 222 C-309.103125 221.27095459 -309.20625 220.54190918 -309.3125 219.79077148 C-310.39635195 210.84996066 -310.24389547 201.80477849 -310.25 192.8125 C-310.25067474 191.92016663 -310.25134949 191.02783325 -310.25204468 190.10845947 C-310.23536121 176.20505189 -309.68159155 162.68026638 -307 149 C-306.82307617 148.0817041 -306.64615234 147.1634082 -306.46386719 146.21728516 C-298.56242877 106.33480887 -280.58824643 69.95756109 -252.41210938 40.47949219 C-251.4756544 39.4983516 -250.54457769 38.51204753 -249.61914062 37.52050781 C-188.96279046 -27.37066511 -77.08910411 -42.76129042 0 0 Z M-167.8203125 112.484375 C-174.74464674 120.47590053 -188 135.82662914 -188 147 C-127.61 147 -67.22 147 -5 147 C-8.38827245 136.6733001 -8.38827245 136.6733001 -12.75 126.875 C-13.09434082 126.19614746 -13.43868164 125.51729492 -13.79345703 124.81787109 C-16.87037511 118.93688579 -20.5004663 113.89115979 -25 109 C-25.73734375 108.17113281 -26.4746875 107.34226562 -27.234375 106.48828125 C-42.80119551 89.87858551 -64.22968056 81.60081921 -86.78125 80.71875 C-117.93338767 80.00805484 -145.94394632 89.56627709 -167.8203125 112.484375 Z " fill="#C88737" transform="translate(4571,461)"/>
<path d="M0 0 C1.68869411 1.51555905 3.36445348 3.04572576 5.0234375 4.59375 C6.74148086 6.18748224 8.4775596 7.66146426 10.31640625 9.109375 C13.99486268 12.29737058 17.04297881 15.79009376 20.12890625 19.546875 C20.90492188 20.4853125 21.6809375 21.42375 22.48046875 22.390625 C29.08041715 30.55953003 34.32097744 39.22351496 39.12890625 48.546875 C39.44988281 49.16820312 39.77085937 49.78953125 40.1015625 50.4296875 C50.92391239 71.7121329 56.66543961 94.92890126 58.25534058 118.70294189 C58.33852126 119.91647756 58.42170194 121.13001322 58.50740325 122.38032269 C59.30081176 134.81630925 59.39701788 147.21821303 59.35595703 159.67480469 C59.35539071 162.14195755 59.35571377 164.60911075 59.35684204 167.07626343 C59.3572918 172.3196279 59.35176425 177.56294672 59.34036636 182.8062973 C59.32389928 190.38668448 59.31888208 197.96704781 59.31639038 205.54745093 C59.31204591 217.85521551 59.29882654 230.16295313 59.27978516 242.47070312 C59.26134118 254.4049466 59.24724976 266.33918262 59.23876953 278.2734375 C59.23823354 279.02030933 59.23769754 279.76718116 59.2371453 280.53668547 C59.23251772 287.03648838 59.22821302 293.53629151 59.2239399 300.03609467 C59.20522319 327.87304688 59.16535265 355.70992727 59.12890625 383.546875 C21.50890625 383.546875 -16.11109375 383.546875 -54.87109375 383.546875 C-55.20109375 370.676875 -55.53109375 357.806875 -55.87109375 344.546875 C-59.17109375 347.846875 -62.47109375 351.146875 -65.87109375 354.546875 C-100.31541495 385.19315317 -147.12690382 394.53497971 -191.87109375 392.546875 C-214.52144553 391.08250027 -236.40962374 385.31840408 -256.87109375 375.546875 C-257.88357178 375.06347656 -257.88357178 375.06347656 -258.91650391 374.5703125 C-289.43003652 359.71732408 -312.46978171 335.17361043 -324.58984375 303.42578125 C-335.13788305 272.86331109 -334.01571768 237.58743823 -320.02124023 208.36499023 C-301.40267606 170.80417643 -268.36124444 146.88964978 -229.30859375 133.421875 C-222.40297273 131.13813226 -215.4061924 129.37516846 -208.30859375 127.796875 C-207.42421631 127.59819824 -206.53983887 127.39952148 -205.62866211 127.19482422 C-190.40749143 123.98123649 -175.31823534 123.16867067 -159.80859375 123.234375 C-158.46222336 123.23710922 -158.46222336 123.23710922 -157.08865356 123.23989868 C-142.82534314 123.2885173 -128.92946779 123.97608522 -114.87109375 126.546875 C-113.92169922 126.71316406 -112.97230469 126.87945313 -111.99414062 127.05078125 C-92.93055167 130.45724652 -73.92181438 135.49307398 -55.87109375 142.546875 C-55.13336021 118.4475794 -60.34044593 97.03084465 -77.234375 78.9609375 C-98.33310739 59.64387584 -127.99556421 54.42769766 -155.69384766 55.44189453 C-187.78193475 56.98908868 -217.33423167 67.13897264 -246.33642578 80.39697266 C-249.49482352 81.82984237 -252.67603246 83.19804829 -255.87109375 84.546875 C-260.84279495 77.03694808 -264.77984692 69.03881805 -268.796875 60.99609375 C-269.5518429 59.49005034 -270.30698807 57.98409579 -271.06230164 56.47822571 C-272.6358053 53.33864223 -274.20623936 50.19754646 -275.7746582 47.05541992 C-277.78654423 43.02581928 -279.80755138 39.00087015 -281.83100605 34.9770689 C-283.38875446 31.87627431 -284.94097801 28.77273948 -286.49159813 25.66837502 C-287.23491628 24.18225242 -287.98012812 22.69707544 -288.72725868 21.21286583 C-289.76703134 19.14561616 -290.79914153 17.07471641 -291.8293457 15.00268555 C-292.41827103 13.82546432 -293.00719635 12.6482431 -293.6139679 11.43534851 C-294.87109375 8.546875 -294.87109375 8.546875 -294.87109375 5.546875 C-209.954803 -36.97578243 -89.51697254 -67.94934681 0 0 Z M-202.87109375 221.546875 C-213.0968225 233.76872204 -218.46869052 245.09401935 -218.1875 261.140625 C-217.08240491 273.03745119 -211.74766132 285.37201238 -202.87109375 293.546875 C-182.23493737 309.88618786 -157.69947299 313.47871903 -132.05322266 310.59912109 C-112.32000865 308.07382453 -93.88439568 301.44599012 -77.87109375 289.546875 C-77.21882813 289.07894531 -76.5665625 288.61101562 -75.89453125 288.12890625 C-65.84434894 280.30444924 -58.23815983 267.75713362 -54.87109375 255.546875 C-54.60781739 252.3589512 -54.63766824 249.18910706 -54.67578125 245.9921875 C-54.67861115 245.09063934 -54.68144104 244.18909119 -54.68435669 243.26022339 C-54.69549936 240.39730224 -54.72059295 237.53470066 -54.74609375 234.671875 C-54.7561312 232.72396287 -54.76525571 230.77604581 -54.7734375 228.828125 C-54.79541932 224.0675863 -54.82990825 219.30728473 -54.87109375 214.546875 C-69.31383386 209.56905867 -69.31383386 209.56905867 -84.12109375 205.859375 C-85.07435547 205.65860352 -86.02761719 205.45783203 -87.00976562 205.25097656 C-102.11438187 202.16748981 -117.45900027 200.10577509 -132.87109375 199.546875 C-134.75441406 199.46759766 -134.75441406 199.46759766 -136.67578125 199.38671875 C-159.47974578 198.86742055 -186.62939217 204.05013284 -202.87109375 221.546875 Z " fill="#C88737" transform="translate(3260.87109375,477.453125)"/>
<path d="M0 0 C28.99175823 26.79555665 44.65664643 64.70340223 47.875 103.6875 C48.00955051 107.59217678 48.00595714 111.49298332 47.99525452 115.39967346 C47.99653615 117.12630019 47.99653615 117.12630019 47.99784368 118.88780826 C47.99948551 122.72933938 47.99399838 126.57082645 47.98852539 130.41235352 C47.98768561 133.17226692 47.98835786 135.93217948 47.9889679 138.6920929 C47.98949103 144.62604284 47.98636628 150.55998174 47.98073006 156.49392891 C47.97258646 165.07331072 47.96999691 173.65268721 47.96874207 182.23207247 C47.96655604 196.15317177 47.95990813 210.07426521 47.95043945 223.99536133 C47.94125371 237.51456676 47.93417856 251.03377059 47.92993164 264.55297852 C47.92953756 265.80396989 47.92953756 265.80396989 47.92913551 267.08023382 C47.92783043 271.26433805 47.92656673 275.44844229 47.92532361 279.63254654 C47.91496498 314.31753625 47.89653421 349.00251508 47.875 383.6875 C10.585 383.6875 -26.705 383.6875 -65.125 383.6875 C-65.16238281 365.98222656 -65.19976563 348.27695312 -65.23828125 330.03515625 C-65.26856136 318.81053908 -65.29958835 307.58593219 -65.33398438 296.36132812 C-65.35203207 290.46232163 -65.36989567 284.56331462 -65.38745117 278.66430664 C-65.3907627 277.55542842 -65.3907627 277.55542842 -65.39414114 276.42414862 C-65.42942384 264.51989543 -65.45433134 252.6156423 -65.47534702 240.71135635 C-65.49717931 228.47658845 -65.53029954 216.24188786 -65.57370156 204.00717729 C-65.60009098 196.46957511 -65.61787966 188.93205664 -65.62434604 181.3944106 C-65.63026864 175.5955022 -65.65196501 169.79673174 -65.67927551 163.99788857 C-65.68801037 161.63297088 -65.69178786 159.26802839 -65.69000816 156.90309525 C-65.67504512 127.82361188 -70.15968882 101.72709896 -90.91796875 79.79296875 C-106.27204744 65.29007566 -126.78091415 60.17394159 -147.36328125 60.4765625 C-170.32881049 61.22710027 -192.29155543 70.9967454 -208.125 87.6875 C-223.85274692 105.87030986 -228.25824727 126.85349019 -228.28321838 150.27348328 C-228.28815636 151.27926873 -228.29309434 152.28505417 -228.29818195 153.32131797 C-228.31342225 156.65911606 -228.32188067 159.99689513 -228.33032227 163.3347168 C-228.33991141 165.7402513 -228.34992208 168.14578416 -228.36032104 170.55131531 C-228.38447258 176.38452163 -228.40425547 182.21773077 -228.42207379 188.05095961 C-228.44306197 194.84380198 -228.46949512 201.63661994 -228.49624526 208.42944167 C-228.54379912 220.54140924 -228.587096 232.65338809 -228.62768555 244.76538086 C-228.66710284 256.52482988 -228.70855476 268.28426886 -228.75268555 280.04370117 C-228.75543505 280.77702394 -228.75818456 281.5103467 -228.76101738 282.26589137 C-228.78495503 288.64563589 -228.8090459 295.02537983 -228.83315182 301.40512371 C-228.9365883 328.83256307 -229.02996932 356.26002725 -229.125 383.6875 C-267.735 383.6875 -306.345 383.6875 -346.125 383.6875 C-346.125 247.3975 -346.125 111.1075 -346.125 -29.3125 C-307.515 -29.3125 -268.905 -29.3125 -229.125 -29.3125 C-228.795 -13.4725 -228.465 2.3675 -228.125 18.6875 C-224.66 14.2325 -224.66 14.2325 -221.125 9.6875 C-198.14685472 -18.72822165 -160.67564384 -34.93623091 -124.92114258 -38.84545898 C-78.6825985 -42.92706576 -34.7894071 -31.23498419 0 0 Z " fill="#C88737" transform="translate(3741.125,477.3125)"/>
<path d="M0 0 C151.8 0 303.6 0 460 0 C460 35.31 460 70.62 460 107 C403.9 107 347.8 107 290 107 C290 252.86 290 398.72 290 549 C250.73 549 211.46 549 171 549 C171 403.14 171 257.28 171 107 C114.57 107 58.14 107 0 107 C0 71.69 0 36.38 0 0 Z " fill="#C88737" transform="translate(1473,312)"/>
<path d="M0 0 C40.59 0 81.18 0 123 0 C143.83346615 52.04605984 164.64752168 104.09919018 185.375 156.1875 C197.16236625 185.80816154 208.94979427 215.42874206 220.787117 245.0294838 C221.61717981 247.10544199 222.44690946 249.18153305 223.27655029 251.25765991 C224.7587398 254.96650373 226.24247295 258.67472854 227.7265625 262.3828125 C228.36685394 263.98502907 228.36685394 263.98502907 229.02008057 265.61961365 C229.40355652 266.57674759 229.78703247 267.53388153 230.18212891 268.52001953 C230.51209869 269.3445462 230.84206848 270.16907288 231.18203735 271.01858521 C231.98243178 273.02492872 231.98243178 273.02492872 233 275 C233.20250366 274.47716934 233.40500732 273.95433868 233.61364746 273.41566467 C242.70585965 249.94237984 251.80483132 226.47189242 260.96685791 203.02575684 C266.46098722 188.96422502 271.92250125 174.89022119 277.375 160.8125 C283.91962637 143.91546465 290.50028783 127.03298855 297.11218262 110.16217041 C303.69930975 93.35203284 310.23908402 76.52383333 316.75390625 59.68554688 C324.46195354 39.77425294 332.23779128 19.89065985 340 0 C380.59 0 421.18 0 463 0 C459.79001629 8.34595763 456.53861877 16.59642338 453 24.796875 C452.53174301 25.88757294 452.06348602 26.97827087 451.58103943 28.10202026 C450.05625795 31.65231056 448.52810626 35.20113965 447 38.75 C445.9213948 41.25936175 444.84360776 43.76907456 443.76586914 46.27880859 C441.56795112 51.39635813 439.3687149 56.51333887 437.16845703 61.62988281 C432.58385628 72.29165628 428.00978636 82.95794095 423.4375 93.625 C423.01336823 94.61422455 422.58923645 95.6034491 422.1522522 96.62265015 C414.82163163 113.7216582 407.52823019 130.83638279 400.24386597 147.95513916 C392.85626425 165.31506073 385.43797022 182.66160333 378 200 C370.14005643 218.32207019 362.3055871 236.65470687 354.5 255 C346.58802834 273.59431333 338.65055739 292.17750457 330.6875 310.75 C330.18438293 311.92345978 329.68126587 313.09691956 329.16290283 314.30593872 C324.91779785 324.20635703 320.67079457 334.10596068 316.42333984 344.00537109 C314.43723355 348.63435636 312.45169279 353.26358388 310.46646118 357.89294434 C309.44782224 360.26772737 308.42842643 362.64218418 307.40893555 365.01660156 C300.55775953 380.99094404 293.78856591 396.99838035 287 413 C251.03 413 215.06 413 178 413 C161.05966828 374.60191478 161.05966828 374.60191478 155.20547485 360.83108521 C148.84018493 345.86424813 142.37043221 330.94584765 135.8125 316.0625 C130.35383028 303.67210971 124.94055557 291.26499372 119.625 278.8125 C113.76298787 265.08021786 107.83402048 251.37796828 101.875 237.6875 C101.44486603 236.69924225 101.01473206 235.7109845 100.57156372 234.69277954 C98.8788168 230.80382513 97.18595091 226.91492256 95.49281311 223.02613831 C92.00784326 215.02097008 88.53230447 207.01175162 85.0625 199 C84.55315918 197.82397217 84.04381836 196.64794434 83.51904297 195.4362793 C82.51668465 193.12161653 81.51440476 190.8069198 80.51220703 188.4921875 C78.11604451 182.95865364 75.71816684 177.42586325 73.32037354 171.89303589 C72.50243371 170.00561585 71.68455517 168.11816927 70.86669922 166.23071289 C68.19674193 160.06897677 65.5264445 153.90738849 62.85546875 147.74609375 C56.55390989 133.20883419 50.26060845 118.66802966 43.9730835 104.12469482 C39.68899234 94.21561214 35.40265904 84.30751036 31.10980225 74.40222168 C30.31544698 72.56929996 29.52124859 70.73631026 28.72705078 68.90332031 C26.32886841 63.36928211 23.92924423 57.83588027 21.52496338 52.30448914 C15.87383513 39.30290109 10.24234239 26.29306792 4.6875 13.25 C4.21296387 12.14237305 3.73842773 11.03474609 3.24951172 9.89355469 C2.6058667 8.37616699 2.6058667 8.37616699 1.94921875 6.828125 C1.57112061 5.9402832 1.19302246 5.05244141 0.8034668 4.13769531 C0 2 0 2 0 0 Z " fill="#C88737" transform="translate(2450,448)"/>
<path d="M0 0 C5.71707986 5.04718947 11.02501919 10.52871631 16.3359375 15.99609375 C12.21155628 21.23517259 7.71974018 25.26845516 2.515625 29.421875 C-1.06332584 32.2906807 -4.51949331 35.29488679 -7.9765625 38.30859375 C-9.26296687 39.42844741 -10.54942544 40.5482388 -11.8359375 41.66796875 C-12.79209961 42.50038086 -12.79209961 42.50038086 -13.76757812 43.34960938 C-16.74261439 45.93246784 -19.7335031 48.49666289 -22.7265625 51.05859375 C-23.29995361 51.54948486 -23.87334473 52.04037598 -24.46411133 52.54614258 C-25.61936768 53.53494578 -26.77472226 54.52363424 -27.93017578 55.51220703 C-30.25932763 57.50553074 -32.58696393 59.50061764 -34.9140625 61.49633789 C-36.07343743 62.48992609 -37.23358452 63.48261404 -38.39453125 64.47436523 C-41.44119517 67.07886833 -44.4711402 69.70005893 -47.48046875 72.34765625 C-48.10759766 72.89550781 -48.73472656 73.44335938 -49.38085938 74.0078125 C-50.57832094 75.05448261 -51.77132522 76.10628264 -52.95898438 77.1640625 C-56.03619149 79.84338637 -58.75848207 81.75969026 -62.6640625 82.99609375 C-63.15132812 82.46242188 -63.63859375 81.92875 -64.140625 81.37890625 C-84.68694752 59.78658913 -114.62391501 46.5667973 -144.39526367 45.64477539 C-175.38305407 45.32132595 -202.1500689 58.23819596 -224.3515625 79.18359375 C-246.45640579 102.06860798 -257.23293965 132.66776573 -257.08569336 164.13769531 C-256.47266971 192.06567693 -246.37650016 219.15490172 -227.6640625 239.99609375 C-227.05433594 240.74761719 -226.44460937 241.49914062 -225.81640625 242.2734375 C-208.84514691 262.77587182 -182.67492272 274.77338254 -156.6640625 277.99609375 C-126.30907084 280.67414372 -95.94889157 270.4932573 -72.6640625 250.99609375 C-69.92581297 248.52822793 -67.21983966 246.02633701 -64.58325195 243.44995117 C-60.97979126 239.99609375 -60.97979126 239.99609375 -57.6640625 239.99609375 C-55.61095468 241.54340678 -53.70906818 243.10905631 -51.7890625 244.80859375 C-50.61733045 245.8230818 -49.44545132 246.83739998 -48.2734375 247.8515625 C-47.67466797 248.37411621 -47.07589844 248.89666992 -46.45898438 249.43505859 C-43.67453359 251.85668242 -40.85766949 254.23940468 -38.0390625 256.62109375 C-37.49701172 257.08056396 -36.95496094 257.54003418 -36.39648438 258.01342773 C-33.05797681 260.83820286 -29.68639776 263.6170409 -26.2890625 266.37109375 C-21.16752269 270.53701097 -16.19166493 274.8569957 -11.21582031 279.19433594 C-6.69654053 283.12484441 -2.10371892 286.94881547 2.55078125 290.71875 C7.87374591 295.07118814 13.09852704 299.54138056 18.3359375 303.99609375 C5.04871742 332.7850706 -39.85514097 354.25380591 -67.4296875 364.73828125 C-124.49706163 385.74005583 -188.30402022 382.2373824 -243.42016602 357.12133789 C-259.60902198 349.52644944 -274.70855005 340.18389284 -288.6640625 328.99609375 C-289.64890625 328.21492188 -290.63375 327.43375 -291.6484375 326.62890625 C-306.2808585 314.77397811 -319.59065549 301.22925017 -330.6640625 285.99609375 C-331.29183594 285.15175781 -331.91960938 284.30742188 -332.56640625 283.4375 C-364.58523259 239.22102553 -378.47098753 183.15910746 -370.1015625 129.12109375 C-364.03339645 93.82445622 -349.13903392 60.84818291 -326.6640625 32.99609375 C-326.22803711 32.4458252 -325.79201172 31.89555664 -325.34277344 31.32861328 C-313.57258959 16.52834778 -300.01624316 3.0499993 -284.6640625 -8.00390625 C-284.03677246 -8.45958984 -283.40948242 -8.91527344 -282.76318359 -9.38476562 C-273.73921769 -15.89621153 -264.44522492 -21.7263646 -254.62451172 -26.95849609 C-253.34868047 -27.6388335 -252.07662225 -28.32631028 -250.80908203 -29.02197266 C-170.74583955 -72.86969237 -68.11311881 -58.75861562 0 0 Z " fill="#C88737" transform="translate(4215.6640625,492.00390625)"/>
<path d="M0 0 C0 32.67 0 65.34 0 99 C-10.56 99.99 -21.12 100.98 -32 102 C-59.93957957 106.85178328 -85.27176655 117.16256667 -106 137 C-106.74894531 137.67417969 -107.49789062 138.34835937 -108.26953125 139.04296875 C-128.53129593 157.95631477 -139.09153522 187.78401681 -140.28391075 215.03123856 C-140.43964989 220.55255666 -140.43724378 226.07311256 -140.43237305 231.59619141 C-140.44141306 233.69734769 -140.45174567 235.79849874 -140.46325684 237.89964294 C-140.49059013 243.54510554 -140.50007883 249.19046744 -140.50611091 254.83598757 C-140.51555684 260.75767203 -140.54176477 266.67928308 -140.56611633 272.60092163 C-140.6096151 283.78821152 -140.63826383 294.97548703 -140.66143972 306.16283548 C-140.69366636 321.29879283 -140.74911188 336.43466453 -140.80318546 351.57055664 C-140.88764079 375.38034546 -140.94131506 399.1901014 -141 423 C-179.94 423 -218.88 423 -259 423 C-259 286.71 -259 150.42 -259 10 C-220.06 10 -181.12 10 -141 10 C-140.67 33.43 -140.34 56.86 -140 81 C-137.03 76.05 -134.06 71.1 -131 66 C-128.97712766 63.199288 -127.02225851 60.56272213 -124.8125 57.9375 C-124.26770996 57.28177002 -123.72291992 56.62604004 -123.16162109 55.95043945 C-96.3094612 24.14054545 -59.80362974 4.73662623 -18.3125 0.3125 C-12.21797965 -0.0460012 -6.1050554 0 0 0 Z " fill="#C88737" transform="translate(2247,438)"/>
<path d="M0 0 C38.94 0 77.88 0 118 0 C118 136.29 118 272.58 118 413 C79.06 413 40.12 413 0 413 C0 276.71 0 140.42 0 0 Z " fill="#C88737" transform="translate(2292,448)"/>
<path d="M0 0 C11.57295658 10.05826079 21.02461704 24.71163391 22.40698242 40.28515625 C23.29409579 60.31122905 19.78013852 77.7284015 6 93.125 C-5.06979885 104.86332937 -19.36684705 112.02003149 -35.5546875 113.05078125 C-54.95957943 113.57219084 -71.3681437 108.25019938 -85.8125 94.8125 C-99.36833625 80.96729451 -104.23823091 65.08946265 -104.17822266 46.1315918 C-103.866967 29.07392542 -96.68756811 15.74909696 -84.8125 3.8125 C-84.22082031 3.18601562 -83.62914063 2.55953125 -83.01953125 1.9140625 C-60.32706767 -20.22736995 -24.06461932 -18.46741678 0 0 Z " fill="#C88737" transform="translate(2391.8125,279.1875)"/>
</svg>
